<svg xmlns="http://www.w3.org/2000/svg" width="640" height="400" viewBox="0 0 640 400" role="img" aria-label="Agent 13, engineering-lead (L2, Integration). Proves it works end to end. Owns the engineering gate.">
<title>Agent 13, engineering-lead (L2, Integration). Proves it works end to end. Owns the engineering gate.</title>
<rect x="0" y="0" width="640" height="400" rx="28" fill="#021449"/>
<text x="40" y="53" font-family="'JetBrains Mono', 'SFMono-Regular', 'Cascadia Mono', Menlo, Consolas, monospace" font-size="18" font-weight="500" fill="#21EA9D">13</text>
<text x="600" y="53" font-family="'Inter', 'Segoe UI', -apple-system, BlinkMacSystemFont, 'Helvetica Neue', Arial, sans-serif" font-size="13" font-weight="600" text-anchor="end" letter-spacing="1.8" fill="#FFFFFF" fill-opacity="0.56"><tspan>L2</tspan><tspan dx="10">INTEGRATION</tspan></text>
<line x1="40" y1="76" x2="600" y2="76" stroke="rgba(255,255,255,0.16)" stroke-width="1"/>
<g transform="translate(320 184)">
<g fill="none" stroke="#FFFFFF" stroke-width="1.5" stroke-linecap="round" stroke-linejoin="round" opacity="0.8"><path d="M -6 -48 H -76 A 12 12 0 0 0 -88 -36 V 36 A 12 12 0 0 0 -76 48 H -6 V 10 H 10 V -10 H -6 Z"/><path d="M 6 -48 H 76 A 12 12 0 0 1 88 -36 V 36 A 12 12 0 0 1 76 48 H 6 V 22 H 22 V -22 H 6 Z"/></g>
<path d="M 0 -48 V -16 H 16 V 16 H 0 V 48" fill="none" stroke="#21EA9D" stroke-width="2.5" stroke-linecap="round" stroke-linejoin="round"/>
</g>
<text x="40" y="316" font-family="'Inter', 'Segoe UI', -apple-system, BlinkMacSystemFont, 'Helvetica Neue', Arial, sans-serif" font-size="34" font-weight="600" letter-spacing="-0.5" fill="#FFFFFF">engineering-lead</text>
<text x="40" y="356" font-family="'Inter', 'Segoe UI', -apple-system, BlinkMacSystemFont, 'Helvetica Neue', Arial, sans-serif" font-size="16" fill="rgba(255,255,255,0.64)">Proves it works end to end</text>
<rect x="473" y="290" width="127" height="28" rx="14" fill="#21EA9D"/>
<text x="536.5" y="308" font-family="'JetBrains Mono', 'SFMono-Regular', 'Cascadia Mono', Menlo, Consolas, monospace" font-size="13" font-weight="600" text-anchor="middle" fill="#021449">engineering</text>
</svg>
