<svg xmlns="http://www.w3.org/2000/svg" width="640" height="400" viewBox="0 0 640 400" role="img" aria-label="Agent 04, ux-designer (L3, Design). Designs every screen and every state.">
<title>Agent 04, ux-designer (L3, Design). Designs every screen and every state.</title>
<rect x="0" y="0" width="640" height="400" rx="28" fill="#021449"/>
<text x="40" y="53" font-family="'JetBrains Mono', 'SFMono-Regular', 'Cascadia Mono', Menlo, Consolas, monospace" font-size="18" font-weight="500" fill="#21EA9D">04</text>
<text x="600" y="53" font-family="'Inter', 'Segoe UI', -apple-system, BlinkMacSystemFont, 'Helvetica Neue', Arial, sans-serif" font-size="13" font-weight="600" text-anchor="end" letter-spacing="1.8" fill="#FFFFFF" fill-opacity="0.56"><tspan>L3</tspan><tspan dx="10">DESIGN</tspan></text>
<line x1="40" y1="76" x2="600" y2="76" stroke="rgba(255,255,255,0.16)" stroke-width="1"/>
<g transform="translate(320 184)">
<g fill="none" stroke="#FFFFFF" stroke-width="1.5" stroke-linecap="round" stroke-linejoin="round" opacity="0.8"><rect x="-88" y="-60" width="176" height="120" rx="12"/><rect x="-76" y="-48" width="40" height="96" rx="8"/><rect x="-24" y="-48" width="100" height="96" rx="8"/><rect x="-12" y="6" width="76" height="30" rx="8"/></g>
<g><rect x="-12" y="-36" width="76" height="30" fill="none" stroke="#21EA9D" stroke-width="2.5" stroke-linecap="round" stroke-linejoin="round"/><rect x="-15" y="-39" width="6" height="6" fill="#21EA9D"/><rect x="61" y="-39" width="6" height="6" fill="#21EA9D"/><rect x="-15" y="-9" width="6" height="6" fill="#21EA9D"/><rect x="61" y="-9" width="6" height="6" fill="#21EA9D"/></g>
</g>
<text x="40" y="316" font-family="'Inter', 'Segoe UI', -apple-system, BlinkMacSystemFont, 'Helvetica Neue', Arial, sans-serif" font-size="34" font-weight="600" letter-spacing="-0.5" fill="#FFFFFF">ux-designer</text>
<text x="40" y="356" font-family="'Inter', 'Segoe UI', -apple-system, BlinkMacSystemFont, 'Helvetica Neue', Arial, sans-serif" font-size="16" fill="rgba(255,255,255,0.64)">Designs every screen and every state</text>
</svg>
